<mxfile host="Electron" agent="Mozilla/5.0 (Macintosh; Intel Mac OS X 10_15_7) AppleWebKit/537.36 (KHTML, like Gecko) draw.io/26.0.9 Chrome/128.0.6613.186 Electron/32.2.5 Safari/537.36" version="26.0.9">
  <diagram name="PÃ¡gina-1" id="csSn5JXQ56xnwb9KgIkt">
    <mxGraphModel dx="1754" dy="1034" grid="1" gridSize="10" guides="1" tooltips="1" connect="1" arrows="1" fold="1" page="1" pageScale="1" pageWidth="1169" pageHeight="827" math="0" shadow="0">
      <root>
        <mxCell id="0" />
        <mxCell id="1" parent="0" />
        <mxCell id="gIALb-mUkqeqKEL-KeRg-1" value="" style="shape=image;aspect=fixed;image=data:image/svg+xml,PD94bWwgdmVyc2lvbj0iMS4wIiBlbmNvZGluZz0iaXNvLTg4NTktMSI/Pg0KPCEtLSBVcGxvYWRlZCB0bzogU1ZHIFJlcG8sIHd3dy5zdmdyZXBvLmNvbSwgR2VuZXJhdG9yOiBTVkcgUmVwbyBNaXhlciBUb29scyAtLT4NCjxzdmcgZmlsbD0iIzAwMDAwMCIgaGVpZ2h0PSI4MDBweCIgd2lkdGg9IjgwMHB4IiB2ZXJzaW9uPSIxLjEiIGlkPSJMYXllcl8xIiB4bWxucz0iaHR0cDovL3d3dy53My5vcmcvMjAwMC9zdmciIHhtbG5zOnhsaW5rPSJodHRwOi8vd3d3LnczLm9yZy8xOTk5L3hsaW5rIiANCgkgdmlld0JveD0iMCAwIDQ4OCA0ODgiIHhtbDpzcGFjZT0icHJlc2VydmUiPg0KPGcgdHJhbnNmb3JtPSJ0cmFuc2xhdGUoMCAtNTQwLjM2KSI+DQoJPGc+DQoJCTxnPg0KCQkJPHBhdGggZD0iTTM1MS4xLDg0Ni45NmwtOTcuMS02Ny45di0xMTYuN2MwLTUuNS00LjUtMTAtMTAtMTBzLTEwLDQuNS0xMCwxMHYxMjJjMCwzLjMsMS42LDYuMyw0LjMsOC4ybDEwMS40LDcwLjkNCgkJCQljMS43LDEuMiwzLjcsMS44LDUuNywxLjh2MGMzLjEsMCw2LjItMS41LDguMi00LjRDMzU2LjcsODU2LjM2LDM1NS42LDg1MC4xNiwzNTEuMSw4NDYuOTZ6Ii8+DQoJCQk8cGF0aCBkPSJNNDE2LjQsNjExLjk2TDQxNi40LDYxMS45NmMtNDYuMi00Ni4yLTEwNy40LTcxLjYtMTcyLjQtNzEuNnMtMTI2LjIsMjUuNC0xNzIuNCw3MS42QzI1LjQsNjU4LjE2LDAsNzE5LjM2LDAsNzg0LjM2DQoJCQkJczI1LjQsMTI2LjIsNzEuNiwxNzIuNGM0Ni4yLDQ2LjIsMTA3LjQsNzEuNiwxNzIuNCw3MS42czEyNi4yLTI1LjQsMTcyLjQtNzEuNnM3MS42LTEwNy40LDcxLjYtMTcyLjRTNDYyLjYsNjU4LjE2LDQxNi40LDYxMS45Ng0KCQkJCXogTTI1NCwxMDA4LjE2TDI1NCwxMDA4LjE2di00MC44YzAtNS41LTQuNS0xMC0xMC0xMHMtMTAsNC41LTEwLDEwdjQwLjhjLTExNS42LTUuMS0yMDguNy05OC4yLTIxMy44LTIxMy44SDYxDQoJCQkJYzUuNSwwLDEwLTQuNSwxMC0xMHMtNC41LTEwLTEwLTEwSDIwLjJjNS4xLTExNS42LDk4LjItMjA4LjcsMjEzLjgtMjEzLjh2NDAuOGMwLDUuNSw0LjUsMTAsMTAsMTBzMTAtNC41LDEwLTEwdi00MC44DQoJCQkJYzExNS42LDUuMSwyMDguNyw5OC4yLDIxMy44LDIxMy44SDQyN2MtNS41LDAtMTAsNC41LTEwLDEwczQuNSwxMCwxMCwxMGg0MC44QzQ2Mi43LDkwOS45NiwzNjkuNiwxMDAzLjA2LDI1NCwxMDA4LjE2eiIvPg0KCQk8L2c+DQoJPC9nPg0KPC9nPg0KPC9zdmc+;" parent="1" vertex="1">
          <mxGeometry x="920" y="80" width="40" height="40" as="geometry" />
        </mxCell>
        <mxCell id="gIALb-mUkqeqKEL-KeRg-2" value="&lt;font color=&quot;#7ea6e0&quot; style=&quot;font-size: 43px;&quot;&gt;{&lt;/font&gt;" style="text;strokeColor=none;align=center;fillColor=none;html=1;verticalAlign=middle;whiteSpace=wrap;rounded=0;" parent="1" vertex="1">
          <mxGeometry x="882" y="66" width="63" height="60" as="geometry" />
        </mxCell>
        <mxCell id="nA5Wse7C6HK7rVOY0XSW-2" value="&lt;font color=&quot;#7ea6e0&quot; style=&quot;font-size: 43px;&quot;&gt;}&lt;/font&gt;" style="text;strokeColor=none;align=center;fillColor=none;html=1;verticalAlign=middle;whiteSpace=wrap;rounded=0;" parent="1" vertex="1">
          <mxGeometry x="935" y="66" width="63" height="60" as="geometry" />
        </mxCell>
        <mxCell id="nA5Wse7C6HK7rVOY0XSW-3" value="&lt;font style=&quot;font-size: 24px;&quot;&gt;&lt;font color=&quot;#7ea6e0&quot;&gt;Open&lt;/font&gt;Simula&lt;/font&gt;" style="text;strokeColor=none;align=center;fillColor=none;html=1;verticalAlign=middle;whiteSpace=wrap;rounded=0;" parent="1" vertex="1">
          <mxGeometry x="960" y="85" width="170" height="30" as="geometry" />
        </mxCell>
        <mxCell id="nA5Wse7C6HK7rVOY0XSW-10" style="edgeStyle=orthogonalEdgeStyle;rounded=0;orthogonalLoop=1;jettySize=auto;html=1;exitX=1;exitY=0.5;exitDx=0;exitDy=0;entryX=0;entryY=0.5;entryDx=0;entryDy=0;" parent="1" source="nA5Wse7C6HK7rVOY0XSW-4" target="58DD8ouUo3ch49hxh0o5-14" edge="1">
          <mxGeometry relative="1" as="geometry">
            <mxPoint x="1480" y="220" as="targetPoint" />
          </mxGeometry>
        </mxCell>
        <mxCell id="nA5Wse7C6HK7rVOY0XSW-4" value="&lt;font style=&quot;font-size: 18px;&quot;&gt;Check&lt;/font&gt;" style="rounded=1;whiteSpace=wrap;html=1;fillColor=#dae8fc;strokeColor=#6c8ebf;" parent="1" vertex="1">
          <mxGeometry x="500" y="239" width="159" height="60" as="geometry" />
        </mxCell>
        <mxCell id="58DD8ouUo3ch49hxh0o5-14" value="&lt;font style=&quot;font-size: 18px;&quot;&gt;pre_simulation&lt;/font&gt;" style="rounded=1;whiteSpace=wrap;html=1;fillColor=#dae8fc;strokeColor=#6c8ebf;" vertex="1" parent="1">
          <mxGeometry x="682" y="239" width="159" height="60" as="geometry" />
        </mxCell>
        <mxCell id="58DD8ouUo3ch49hxh0o5-15" value="&lt;font style=&quot;font-size: 18px;&quot;&gt;Time Loop&lt;/font&gt;" style="strokeWidth=2;html=1;shape=mxgraph.flowchart.decision;whiteSpace=wrap;fillColor=#fff2cc;strokeColor=#d6b656;" vertex="1" parent="1">
          <mxGeometry x="870" y="234" width="149" height="70" as="geometry" />
        </mxCell>
        <mxCell id="58DD8ouUo3ch49hxh0o5-17" value="" style="endArrow=classic;html=1;rounded=0;entryX=0;entryY=0.5;entryDx=0;entryDy=0;entryPerimeter=0;exitX=1;exitY=0.5;exitDx=0;exitDy=0;" edge="1" parent="1" source="58DD8ouUo3ch49hxh0o5-14" target="58DD8ouUo3ch49hxh0o5-15">
          <mxGeometry width="50" height="50" relative="1" as="geometry">
            <mxPoint x="830" y="280" as="sourcePoint" />
            <mxPoint x="900" y="264" as="targetPoint" />
          </mxGeometry>
        </mxCell>
        <mxCell id="58DD8ouUo3ch49hxh0o5-18" value="&lt;font style=&quot;font-size: 18px;&quot;&gt;pre_iteration&lt;/font&gt;" style="rounded=1;whiteSpace=wrap;html=1;fillColor=#fff2cc;strokeColor=#d6b656;" vertex="1" parent="1">
          <mxGeometry x="1040" y="239" width="159" height="60" as="geometry" />
        </mxCell>
        <mxCell id="58DD8ouUo3ch49hxh0o5-20" value="&lt;font style=&quot;font-size: 18px;&quot;&gt;post_iteration&lt;/font&gt;" style="rounded=1;whiteSpace=wrap;html=1;fillColor=#fff2cc;strokeColor=#d6b656;" vertex="1" parent="1">
          <mxGeometry x="1595" y="239" width="159" height="60" as="geometry" />
        </mxCell>
        <mxCell id="58DD8ouUo3ch49hxh0o5-21" value="&lt;font style=&quot;font-size: 18px;&quot;&gt;post_simulation&lt;/font&gt;" style="rounded=1;whiteSpace=wrap;html=1;fillColor=#dae8fc;strokeColor=#6c8ebf;" vertex="1" parent="1">
          <mxGeometry x="1780" y="239" width="159" height="60" as="geometry" />
        </mxCell>
        <mxCell id="58DD8ouUo3ch49hxh0o5-22" value="&lt;font style=&quot;font-size: 18px;&quot;&gt;Iteration Loop&lt;/font&gt;&lt;div&gt;&lt;font&gt;if all iteration True&lt;/font&gt;&lt;/div&gt;" style="strokeWidth=2;html=1;shape=mxgraph.flowchart.decision;whiteSpace=wrap;fillColor=#f8cecc;strokeColor=#b85450;" vertex="1" parent="1">
          <mxGeometry x="1230" y="224" width="154" height="90" as="geometry" />
        </mxCell>
        <mxCell id="58DD8ouUo3ch49hxh0o5-23" value="&lt;font style=&quot;font-size: 18px;&quot;&gt;iteration&lt;/font&gt;" style="rounded=1;whiteSpace=wrap;html=1;fillColor=#f8cecc;strokeColor=#b85450;" vertex="1" parent="1">
          <mxGeometry x="1410" y="239" width="159" height="60" as="geometry" />
        </mxCell>
        <mxCell id="58DD8ouUo3ch49hxh0o5-24" value="" style="endArrow=classic;html=1;rounded=0;entryX=0;entryY=0.5;entryDx=0;entryDy=0;exitX=1;exitY=0.5;exitDx=0;exitDy=0;exitPerimeter=0;" edge="1" parent="1" source="58DD8ouUo3ch49hxh0o5-15" target="58DD8ouUo3ch49hxh0o5-18">
          <mxGeometry width="50" height="50" relative="1" as="geometry">
            <mxPoint x="1210" y="379" as="sourcePoint" />
            <mxPoint x="1260" y="329" as="targetPoint" />
          </mxGeometry>
        </mxCell>
        <mxCell id="58DD8ouUo3ch49hxh0o5-25" value="" style="endArrow=classic;html=1;rounded=0;entryX=0;entryY=0.5;entryDx=0;entryDy=0;entryPerimeter=0;exitX=1;exitY=0.5;exitDx=0;exitDy=0;" edge="1" parent="1" source="58DD8ouUo3ch49hxh0o5-18" target="58DD8ouUo3ch49hxh0o5-22">
          <mxGeometry width="50" height="50" relative="1" as="geometry">
            <mxPoint x="1263" y="449" as="sourcePoint" />
            <mxPoint x="1263" y="469" as="targetPoint" />
          </mxGeometry>
        </mxCell>
        <mxCell id="58DD8ouUo3ch49hxh0o5-26" value="" style="endArrow=classic;html=1;rounded=0;entryX=0;entryY=0.5;entryDx=0;entryDy=0;exitX=1;exitY=0.5;exitDx=0;exitDy=0;exitPerimeter=0;" edge="1" parent="1" source="58DD8ouUo3ch49hxh0o5-22" target="58DD8ouUo3ch49hxh0o5-23">
          <mxGeometry width="50" height="50" relative="1" as="geometry">
            <mxPoint x="1210" y="510" as="sourcePoint" />
            <mxPoint x="1260" y="460" as="targetPoint" />
          </mxGeometry>
        </mxCell>
        <mxCell id="58DD8ouUo3ch49hxh0o5-27" value="" style="endArrow=classic;html=1;rounded=0;entryX=0;entryY=0.5;entryDx=0;entryDy=0;exitX=1;exitY=0.5;exitDx=0;exitDy=0;" edge="1" parent="1" source="58DD8ouUo3ch49hxh0o5-23" target="58DD8ouUo3ch49hxh0o5-20">
          <mxGeometry width="50" height="50" relative="1" as="geometry">
            <mxPoint x="1620" y="270" as="sourcePoint" />
            <mxPoint x="1260" y="460" as="targetPoint" />
          </mxGeometry>
        </mxCell>
        <mxCell id="58DD8ouUo3ch49hxh0o5-28" value="" style="endArrow=classic;html=1;rounded=0;edgeStyle=orthogonalEdgeStyle;exitX=0.5;exitY=1;exitDx=0;exitDy=0;entryX=0.5;entryY=1;entryDx=0;entryDy=0;entryPerimeter=0;" edge="1" parent="1" source="58DD8ouUo3ch49hxh0o5-23" target="58DD8ouUo3ch49hxh0o5-22">
          <mxGeometry width="50" height="50" relative="1" as="geometry">
            <mxPoint x="960" y="690" as="sourcePoint" />
            <mxPoint x="1090" y="610" as="targetPoint" />
            <Array as="points">
              <mxPoint x="1490" y="360" />
              <mxPoint x="1307" y="360" />
            </Array>
          </mxGeometry>
        </mxCell>
        <mxCell id="58DD8ouUo3ch49hxh0o5-30" value="" style="endArrow=classic;html=1;rounded=0;edgeStyle=orthogonalEdgeStyle;exitX=0.5;exitY=1;exitDx=0;exitDy=0;entryX=0.5;entryY=1;entryDx=0;entryDy=0;entryPerimeter=0;" edge="1" parent="1" source="58DD8ouUo3ch49hxh0o5-20" target="58DD8ouUo3ch49hxh0o5-15">
          <mxGeometry width="50" height="50" relative="1" as="geometry">
            <mxPoint x="1193" y="620" as="sourcePoint" />
            <mxPoint x="820" y="390" as="targetPoint" />
            <Array as="points">
              <mxPoint x="1675" y="400" />
              <mxPoint x="945" y="400" />
            </Array>
          </mxGeometry>
        </mxCell>
        <mxCell id="58DD8ouUo3ch49hxh0o5-31" value="" style="endArrow=classic;html=1;rounded=0;exitX=1;exitY=0.5;exitDx=0;exitDy=0;" edge="1" parent="1" source="58DD8ouUo3ch49hxh0o5-20" target="58DD8ouUo3ch49hxh0o5-21">
          <mxGeometry width="50" height="50" relative="1" as="geometry">
            <mxPoint x="1210" y="630" as="sourcePoint" />
            <mxPoint x="1260" y="580" as="targetPoint" />
          </mxGeometry>
        </mxCell>
      </root>
    </mxGraphModel>
  </diagram>
</mxfile>
